# Alias OBJ Model File
# Exported from SketchUp, (c) 2000-2012 Trimble Navigation Limited
# File units = millimeters

mtllib A8Plus_stock_fan_duct.mtl

g Mesh1 Model

usemtl FrontColor
v 3 0 -0
vt 0.11131 0
vn 0.33441 0 0.942428
v 29.5 0 -9.40323
vt 1.21835 0
v 29.5 18 -9.40323
vt 1.21835 0.708661
v 3 18 -0
vt 0.11131 0.708661
f 1/1/1 2/2/1 3/3/1 4/4/1 

vt -1.16142 0.370206
vn 0 -1 -0
vt -0.11811 0
v -0.770529 0 -3.97246
vt 0.0303358 0.156396
v 18 0 -19.5
vt -0.708661 0.767717
v 18 0 -21.5
vt -0.708661 0.846457
v 19.5 0 -21.5
vt -0.767717 0.846457
v 21.5 0 -27
vt -0.846457 1.06299
v 30.5 0 -27
vt -1.20079 1.06299
v 32.5 0 -21.5
vt -1.27953 0.846457
v 34 0 -21.5
vt -1.33858 0.846457
v 34 0 -15.7749
vt -1.33858 0.621059
v 33.8467 0 -14.4847
vt -1.33255 0.570262
v 33.3971 0 -13.1735
vt -1.31485 0.518643
v 32.682 0 -11.9309
vt -1.28669 0.469719
v 31.75 0 -10.8413
vt -1.25 0.426824
v 30.6647 0 -9.9792
vt -1.20727 0.392882
f 2/5/2 1/6/2 5/7/2 6/8/2 7/9/2 8/10/2 9/11/2 10/12/2 11/13/2 12/14/2 13/15/2 14/16/2 15/17/2 16/18/2 17/19/2 18/20/2 

vt 0.0813109 -2.42383e-18
vn -0.725301 -2.82942e-17 0.688432
v 1.79455 1.6 -1.27
vt 0.0123738 0.0629921
vt -0.134318 -2.42383e-18
f 1/21/3 19/22/3 5/23/3

v 1.79455 16.4 -1.27
vt 0.0123738 0.645669
f 19/22/3 1/21/3 20/24/3

vt 0.0813109 0.708661
f 4/25/3 20/24/3 1/21/3

v -0.770529 18 -3.97246
vt -0.134318 0.708661
f 20/24/3 4/25/3 21/26/3

v 18 18 -19.5
vt 0.708661 0.767717
vn 0 1 -0
vt -0.0303358 0.156396
vt 0.11811 0
vt 1.16142 0.370206
v 30.6647 18 -9.9792
vt 1.20727 0.392882
v 31.75 18 -10.8413
vt 1.25 0.426824
v 32.682 18 -11.9309
vt 1.28669 0.469719
v 33.3971 18 -13.1735
vt 1.31485 0.518643
v 33.8467 18 -14.4847
vt 1.33255 0.570262
v 34 18 -15.7749
vt 1.33858 0.621059
v 34 18 -21.5
vt 1.33858 0.846457
v 18 18 -21.5
vt 0.708661 0.846457
f 22/27/4 21/28/4 4/29/4 3/30/4 23/31/4 24/32/4 25/33/4 26/34/4 27/35/4 28/36/4 29/37/4 30/38/4 

vt -1.03539 3.28428e-18
vn -0.637405 -2.34853e-17 -0.770529
vt -0.0763129 3.28428e-18
vt -0.0763129 0.708661
vt -1.03539 0.708661
f 6/39/5 5/40/5 21/41/5 22/42/5 

v 0.332267 1.6 -2.8106
vt -0.0712515 0.0629921
f 5/23/3 31/43/3 21/26/3

f 5/23/3 19/22/3 31/43/3

v 21.1 1.6 -19.9
vt 0.830709 0.783465
vn -1.71291e-17 1 8.56437e-18
vt 0.0130814 0.110654
vt 0.0706517 0.0500001
v 27.9 1.6 -10.5332
vt 1.09843 0.414694
v 29.0647 1.6 -11.1092
vt 1.14428 0.43737
v 30.15 1.6 -11.9713
vt 1.18701 0.471312
v 31.082 1.6 -13.0609
vt 1.2237 0.514207
v 31.7971 1.6 -14.3035
vt 1.25185 0.563131
v 32.2467 1.6 -15.6147
vt 1.26955 0.61475
v 32.4 1.6 -16.9049
vt 1.27559 0.665547
v 32.4 1.6 -19.9
vt 1.27559 0.783465
v 30.9 1.6 -19.9
vt 1.21654 0.783465
v 30.9 1.6 -27
vt 1.21654 1.06299
v 21.1 1.6 -27
vt 0.830709 1.06299
f 32/44/6 31/45/6 19/46/6 33/47/6 34/48/6 35/49/6 36/50/6 37/51/6 38/52/6 39/53/6 40/54/6 41/55/6 42/56/6 43/57/6 

v 21.1 16.4 -19.9
vt 1.13927 0.645669
vn 0.635409 -5.28068e-17 0.772175
v 0.332267 16.4 -2.8106
vt 0.0804114 0.645669
vt 0.0804114 0.0629921
vt 1.13927 0.0629921
v 21.1 14.9 -19.9
vt 1.13927 0.586614
f 44/58/7 45/59/7 31/60/7 32/61/7 46/62/7 

v 27.9 16.4 -10.5332
vt -1.09843 0.414694
vt -0.0706517 0.0500001
vt -0.0130814 0.110654
vt -0.830709 0.783465
v 32.4 16.4 -19.9
vt -1.27559 0.783465
v 32.4 16.4 -16.9049
vt -1.27559 0.665547
v 32.2467 16.4 -15.6147
vt -1.26955 0.61475
v 31.7971 16.4 -14.3035
vt -1.25185 0.563131
v 31.082 16.4 -13.0609
vt -1.2237 0.514207
v 30.15 16.4 -11.9713
vt -1.18701 0.471312
v 29.0647 16.4 -11.1092
vt -1.14428 0.43737
f 47/63/2 20/64/2 45/65/2 44/66/2 48/67/2 49/68/2 50/69/2 51/70/2 52/71/2 53/72/2 54/73/2 

vt -1.17386 0.0629921
vn -0.33441 -2.56815e-17 -0.942428
vt -0.0833047 0.0629921
vt -0.0833047 0.645669
vt -1.17386 0.645669
f 33/74/8 19/75/8 20/76/8 47/77/8 

vt -1.21959 0.645669
vn -0.53565 -8.08264e-17 -0.84444
vt -1.21959 0.0629921
vt -1.16843 0.0629921
vn -0.443289 -8.473e-17 -0.896379
vt -1.16843 0.645669
f 54/78/9 34/79/9 33/80/10 47/81/10 

vt -1.22261 0.645669
vn -0.694146 -1.17587e-17 -0.719835
vt -1.22261 0.0629921
vt -1.16804 0.0629921
vt -1.16804 0.645669
f 53/82/11 35/83/11 34/84/9 54/85/9 

vt -1.18619 0.645669
vn -0.816826 8.50216e-17 -0.576884
vt -1.18619 0.0629921
vt -1.12974 0.0629921
vt -1.12974 0.645669
f 52/86/12 36/87/12 35/88/11 53/89/11 

vt -1.11249 0.645669
vn -0.910521 1.49058e-16 -0.413462
vt -1.11249 0.0629921
vt -1.05604 0.0629921
vt -1.05604 0.645669
f 51/90/13 37/91/13 36/92/12 52/93/12 

vt -0.993282 0.645669
vn -0.97495 1.85719e-16 -0.222423
vt -0.993282 0.0629921
vt -0.938712 0.0629921
vt -0.938712 0.645669
f 50/94/14 38/95/14 37/96/13 51/97/13 

vt -0.81143 0.645669
vn -0.993012 1.89314e-16 -0.11801
vt -0.81143 0.0629921
vt -0.760275 0.0629921
vt -0.760275 0.645669
f 49/98/15 39/99/15 38/100/14 50/101/14 

vt -0.783465 0.0629921
vn -1 0 -0
vt -0.665547 0.0629921
vt -0.665547 0.645669
vt -0.783465 0.645669
f 40/102/16 39/103/16 49/104/16 48/105/16 

vt 1.27559 0.0629921
vn 0 0 1
vt 1.27559 0.645669
vt 0.830709 0.645669
vt 0.830709 0.586614
v 30.9 14.9 -19.9
vt 1.21654 0.586614
vt 1.21654 0.0629921
f 40/106/17 48/107/17 44/108/17 46/109/17 55/110/17 41/111/17 

v 30.9 14.9 -27
vt -1.21654 1.06299
vt -1.21654 0.783465
v 21.1 14.9 -27
vt -0.830709 1.06299
f 56/112/2 55/113/2 46/66/2 57/114/2 

vt -0.783465 0.586614
vt -1.06299 0.586614
vt -1.06299 0.0629921
f 41/102/16 55/115/16 56/116/16 42/117/16 

v 32.5 2 -27
vt -1.27953 0.0787402
vn 0 0 -1
vt -1.21654 0.0629921
vt -1.21654 0.586614
f 58/118/18 42/119/18 56/120/18

vt -1.20079 0
f 10/121/18 42/119/18 58/118/18

vt -0.830709 0.0629921
f 42/119/18 10/121/18 43/122/18

vt -0.846457 0
f 9/123/18 43/122/18 10/121/18

v 19.5 2 -27
vt -0.767717 0.0787402
f 43/122/18 9/123/18 59/124/18

vt -1.26135 -0.187945
vn -0.68483 -0.68483 -0.249029
vt -1.28826 -0.296
vt -1.05786 -0.296
f 59/125/19 9/126/19 8/127/19

v 19.5 16.5 -21.5
vt -0.846457 0.649606
v 19.5 14.5 -27
vt -1.06299 0.570866
vt -1.06299 0.0787402
f 8/123/16 60/128/16 61/129/16 59/130/16 

v 32.5 16.5 -21.5
vt -1.27953 0.649606
vn 2.03136e-16 -8.44972e-19 -1
vt -0.767717 0.649606
vt -0.767717 7.15232e-19
vt -0.708661 7.15232e-19
vt -0.708661 0.708661
vt -1.33858 0.708661
vt -1.33858 7.15232e-19
vt -1.27953 7.15232e-19
f 62/131/20 60/132/20 8/133/20 7/134/20 30/135/20 29/136/20 12/137/20 11/138/20 

v 30.5 16.5 -27
vt 1.20079 1.06299
vn -4.96314e-16 1 1.77814e-31
v 21.5 16.5 -27
vt 0.846457 1.06299
vt 0.767717 0.846457
vt 1.27953 0.846457
f 63/139/21 64/140/21 60/141/21 62/142/21 

vt -1.20079 0.649606
f 63/143/18 56/120/18 64/128/18

v 32.5 14.5 -27
vt -1.27953 0.570866
f 65/144/18 56/120/18 63/143/18

f 58/118/18 56/120/18 65/144/18

vt 0.846457 0.649606
vn 1 0 -0
vt 0.846457 0
vt 1.06299 0.0787402
vt 1.06299 0.570866
f 62/145/22 11/146/22 58/147/22 65/148/22 

vt 0.561723 1.12966
vn 0.68483 -0.68483 -0.249029
vt 0.358225 1.0216
vt 0.588632 1.0216
f 58/149/23 11/150/23 10/151/23

vt 0.561723 -0.656289
vn 0.68483 0.68483 -0.249029
vt 0.588632 -0.548234
vt 0.358225 -0.548234
f 65/152/24 63/153/24 62/154/24

vt -0.830709 0.586614
f 57/155/18 64/128/18 56/120/18

vt -0.767717 0.570866
f 57/155/18 61/156/18 64/128/18

f 57/155/18 59/124/18 61/156/18

f 43/122/18 59/124/18 57/155/18

vt 1.06299 0.0629921
vt 1.06299 0.586614
vt 0.783465 0.586614
vt 0.783465 0.0629921
f 43/157/22 57/158/22 46/159/22 32/160/22 

vt -1.26135 0.661315
vn -0.68483 0.68483 -0.249029
vt -1.05786 0.76937
vt -1.28826 0.76937
f 61/161/25 60/162/25 64/163/25

vt -0.767717 0
vt -0.767717 0.708661
vt -0.846457 0.708661
f 7/123/16 6/164/16 22/165/16 30/166/16 

vt 0.846457 0.708661
vt 0.621059 0.708661
vt 0.621059 0
f 29/167/22 28/168/22 13/169/22 12/146/22 

vt 0.774686 0
vn 0.993012 0 0.11801
vt 0.774686 0.708661
vt 0.723532 0.708661
vn 0.97495 0 0.222423
vt 0.723532 0
f 13/170/26 28/171/26 27/172/27 14/173/27 

vt 0.971629 0
vt 0.971629 0.708661
vt 0.91706 0.708661
vn 0.910521 0 0.413462
vt 0.91706 0
f 14/174/27 27/175/27 26/176/28 15/177/28 

vt 1.10535 0
vt 1.10535 0.708661
vt 1.0489 0.708661
vn 0.816826 0 0.576884
vt 1.0489 0
f 15/178/28 26/179/28 25/180/29 16/181/29 

vt 1.19333 0
vt 1.19333 0.708661
vt 1.13688 0.708661
vn 0.694146 0 0.719835
vt 1.13688 0
f 16/182/29 25/183/29 24/184/30 17/185/30 

vt 1.24426 0
vt 1.24426 0.708661
vt 1.18969 0.708661
vn 0.53565 0 0.84444
vt 1.18969 0
f 17/186/30 24/187/30 23/188/31 18/189/31 

vt 1.25633 0
vt 1.25633 0.708661
vt 1.20518 0.708661
vn 0.443289 0 0.896379
vt 1.20518 0
f 18/190/31 23/191/31 3/192/32 2/193/32 

vt -0.0712515 0.645669
f 20/24/3 21/26/3 45/194/3

f 45/194/3 21/26/3 31/43/3

